<?xml version="1.0" encoding="UTF-8" standalone="no"?>
<svg
   xmlns:dc="http://purl.org/dc/elements/1.1/"
   xmlns:cc="http://creativecommons.org/ns#"
   xmlns:rdf="http://www.w3.org/1999/02/22-rdf-syntax-ns#"
   xmlns:svg="http://www.w3.org/2000/svg"
   xmlns="http://www.w3.org/2000/svg"
   xmlns:sodipodi="http://sodipodi.sourceforge.net/DTD/sodipodi-0.dtd"
   xmlns:inkscape="http://www.inkscape.org/namespaces/inkscape"
   width="297mm"
   height="210mm"
   viewBox="0 0 297 210"
   version="1.1"
   id="svg8"
   inkscape:export-filename="/Users/jhss/Desktop/projetos/IBurguer/frontend/src/assets/iburguer-logo.png"
   inkscape:export-xdpi="96"
   inkscape:export-ydpi="96"
   inkscape:version="1.0rc1 (09960d6, 2020-04-09)"
   sodipodi:docname="i-burguer.svg">
  <defs
     id="defs2" />
  <sodipodi:namedview
     id="base"
     pagecolor="#ffffff"
     bordercolor="#666666"
     borderopacity="1.0"
     inkscape:pageopacity="0.0"
     inkscape:pageshadow="2"
     inkscape:zoom="0.72160204"
     inkscape:cx="530.08916"
     inkscape:cy="390.78"
     inkscape:document-units="mm"
     inkscape:current-layer="layer1"
     inkscape:document-rotation="0"
     showgrid="false"
     inkscape:window-width="1440"
     inkscape:window-height="815"
     inkscape:window-x="0"
     inkscape:window-y="23"
     inkscape:window-maximized="0" />
  <metadata
     id="metadata5">
    <rdf:RDF>
      <cc:Work
         rdf:about="">
        <dc:format>image/svg+xml</dc:format>
        <dc:type
           rdf:resource="http://purl.org/dc/dcmitype/StillImage" />
        <dc:title />
      </cc:Work>
    </rdf:RDF>
  </metadata>
  <g
     inkscape:label="Camada 1"
     inkscape:groupmode="layer"
     id="layer1">
    <text
       xml:space="preserve"
       style="font-style:normal;font-weight:normal;font-size:53.41890000000000072px;line-height:1.25;font-family:sans-serif;fill:#552200;fill-opacity:1;stroke:none;stroke-width:1.33547;"
       x="32.587681"
       y="116.77317"
       id="text12"
       transform="scale(0.92993653,1.0753422)"><tspan
         sodipodi:role="line"
         id="tspan10"
         x="32.587681"
         y="116.77317"
         style="font-style:normal;font-variant:normal;font-weight:normal;font-stretch:normal;font-family:Shrikhand;-inkscape-font-specification:Shrikhand;stroke-width:1.33547;fill:#552200;">IBurguer</tspan></text>
    <path
       transform="scale(0.26458333)"
       d="M 352.12305 102.54883 C 268.36877 102.54883 200.94141 169.97619 200.94141 253.73047 L 200.94141 306.29297 C 202.48562 306.28497 204.01481 306.26367 205.56641 306.26367 L 901.30469 306.26367 C 919.24464 306.26367 936.67318 306.80231 953.43359 307.79297 L 953.43359 253.73047 C 953.43359 169.97619 886.0082 102.54883 802.25391 102.54883 L 352.12305 102.54883 z M 368.09766 162.53906 A 15.243858 15.243858 0 0 1 370.03906 162.67578 A 15.243858 15.243858 0 0 1 383.11328 179.81641 A 15.243858 15.243858 0 0 1 365.97266 192.89062 A 15.243858 15.243858 0 0 1 352.89844 175.75 A 15.243858 15.243858 0 0 1 368.09766 162.53906 z M 580.125 162.53906 A 15.243858 15.243858 0 0 1 582.06641 162.67578 A 15.243858 15.243858 0 0 1 595.14258 179.81641 A 15.243858 15.243858 0 0 1 578.00195 192.89062 A 15.243858 15.243858 0 0 1 564.92578 175.75 A 15.243858 15.243858 0 0 1 580.125 162.53906 z M 792.1543 162.53906 A 15.243858 15.243858 0 0 1 794.0957 162.67578 A 15.243858 15.243858 0 0 1 807.16992 179.81641 A 15.243858 15.243858 0 0 1 790.0293 192.89062 A 15.243858 15.243858 0 0 1 776.95508 175.75 A 15.243858 15.243858 0 0 1 792.1543 162.53906 z M 272.40039 228.82031 A 15.243858 15.243858 0 0 1 274.34375 228.95508 A 15.243858 15.243858 0 0 1 287.41797 246.0957 A 15.243858 15.243858 0 0 1 270.27734 259.17188 A 15.243858 15.243858 0 0 1 257.20312 242.03125 A 15.243858 15.243858 0 0 1 272.40039 228.82031 z M 475.65234 228.82031 A 15.243858 15.243858 0 0 1 477.59375 228.95508 A 15.243858 15.243858 0 0 1 490.66992 246.0957 A 15.243858 15.243858 0 0 1 473.5293 259.17188 A 15.243858 15.243858 0 0 1 460.45312 242.03125 A 15.243858 15.243858 0 0 1 475.65234 228.82031 z M 678.9043 228.82031 A 15.243858 15.243858 0 0 1 680.8457 228.95508 A 15.243858 15.243858 0 0 1 693.92188 246.0957 A 15.243858 15.243858 0 0 1 676.78125 259.17188 A 15.243858 15.243858 0 0 1 663.70508 242.03125 A 15.243858 15.243858 0 0 1 678.9043 228.82031 z M 882.15625 228.82031 A 15.243858 15.243858 0 0 1 884.09766 228.95508 A 15.243858 15.243858 0 0 1 897.17188 246.0957 A 15.243858 15.243858 0 0 1 880.03125 259.17188 A 15.243858 15.243858 0 0 1 866.95703 242.03125 A 15.243858 15.243858 0 0 1 882.15625 228.82031 z M 953.43359 545.86328 C 936.67318 546.85394 919.24464 547.39258 901.30469 547.39258 L 719.69531 547.39258 L 327.78516 608.67383 L 293.19922 547.39258 L 205.56641 547.39258 C 204.01481 547.39258 202.48562 547.37108 200.94141 547.36328 L 200.94141 548.65039 C 200.94141 632.40465 268.36877 699.83203 352.12305 699.83203 L 802.25391 699.83203 C 886.0082 699.83203 953.43359 632.40465 953.43359 548.65039 L 953.43359 545.86328 z "
       style="fill:#a05a2c;stroke-width:0.999999"
       id="rect18" />
  </g>
</svg>
